<svg width="102" height="54" viewBox="0 0 102 54" fill="none" xmlns="http://www.w3.org/2000/svg">
<g clip-path="url(#clip0_6410_2152)">
<path fill-rule="evenodd" clip-rule="evenodd" d="M101.129 18.5654H97.836V38.7387H101.129V18.5654ZM39.0649 35.9739C38.7027 36.2483 37.9202 36.3855 36.7191 36.3855C35.4798 36.3855 34.653 36.1526 34.2386 35.6849C33.8241 35.2171 33.6169 34.2858 33.6169 32.8909C33.6169 32.7911 33.625 32.5832 33.6451 32.2652H42.8954L42.8893 31.2341C42.8893 28.544 42.4749 26.7416 41.644 25.8249C40.8151 24.9081 39.1775 24.4487 36.7372 24.4487C34.1903 24.4487 32.4782 24.9206 31.5991 25.8665C30.7219 26.8123 30.2813 28.6584 30.2813 31.4066C30.2813 34.4999 30.7018 36.5227 31.5407 37.4769C32.3796 38.429 34.1601 38.9071 36.8801 38.9071C40.8876 38.9071 42.8913 37.5226 42.8913 34.7536L42.8974 34.2047H39.6081C39.6081 35.1111 39.427 35.7015 39.0649 35.978V35.9739ZM34.2245 27.5753C34.5926 27.172 35.3853 26.9724 36.6064 26.9724C37.8276 26.9724 38.6826 27.1387 39.0608 27.4734C39.4391 27.806 39.6262 28.5315 39.6262 29.65L39.6403 30.2092H33.6773C33.6773 28.8558 33.8603 27.9786 34.2265 27.5774L34.2245 27.5753ZM50.5303 26.9953L50.6028 27.0098C51.2405 25.3031 52.6669 24.4487 54.8839 24.4487C58.1088 24.4487 59.7203 26.0057 59.7203 29.1219V38.7367H56.4269V29.6978L56.3545 28.7082C56.2036 27.6626 55.409 27.1387 53.9705 27.1387C51.7857 27.1387 50.6913 28.2135 50.6913 30.363V38.7387H47.3959V24.6171H50.6631L50.5323 26.9953H50.5303ZM72.2716 26.9675C72.5794 27.1318 72.7665 27.5496 72.8329 28.2211L72.8349 28.2232C72.8403 28.2536 72.847 28.2931 72.8551 28.3419L72.8555 28.3439L72.8557 28.3454L72.8559 28.3466L72.8559 28.3467L72.857 28.3533L72.8572 28.3544L72.8792 28.4851H76.082C76.082 26.8927 75.6896 25.82 74.903 25.2733C74.1164 24.7265 72.5834 24.4521 70.3081 24.4521C67.8999 24.4521 66.2704 24.739 65.4234 25.3086C64.5764 25.8803 64.1519 26.9717 64.1519 28.5849C64.154 30.3831 64.6167 31.568 65.5441 32.1397C66.4716 32.7114 68.3969 32.9962 71.32 32.9962C72.6156 32.9962 73.2634 33.5929 73.2634 34.782C73.2634 36.021 72.165 36.6405 70.1652 36.6405C68.1655 36.6405 67.232 36.0126 67.3648 34.7591C67.3789 34.599 67.407 34.441 67.4433 34.2851H64.0393L64.0272 34.6406C64.0272 36.285 64.4577 37.4076 65.3188 38.0083C66.1798 38.6091 67.7812 38.9085 70.123 38.9085C72.5593 38.9085 74.2472 38.5759 75.1867 37.9127C76.1262 37.2496 76.597 36.0563 76.597 34.335C76.599 32.7218 76.2469 31.6554 75.5408 31.1336C74.8346 30.6097 73.3157 30.2916 70.984 30.1731C69.2519 30.0837 68.2359 29.9652 67.9361 29.8176C67.6364 29.67 67.4855 29.2085 67.4855 28.4311C67.4875 27.2898 68.3345 26.7202 70.0324 26.7202C71.2174 26.7202 71.9638 26.8033 72.2716 26.9675ZM92.0959 25.7584C91.2751 24.8874 89.545 24.4508 86.9035 24.4508C84.1835 24.4508 82.4192 24.8936 81.6084 25.7813C80.7976 26.669 80.3933 28.594 80.3913 31.5605C80.3913 34.6455 80.8037 36.6412 81.6285 37.5497C82.4534 38.4582 84.264 38.9114 87.0584 38.9093C89.6335 38.9093 91.3214 38.4207 92.1221 37.4458C92.9228 36.4708 93.3232 34.4169 93.3232 31.2819C93.3232 28.4713 92.9147 26.6315 92.0939 25.7584H92.0959ZM89.4565 35.3773C89.1004 35.9365 88.2454 36.2172 86.8874 36.2172C85.4811 36.2172 84.604 35.9511 84.2539 35.421C83.9039 34.8908 83.7268 33.5645 83.7268 31.4441C83.7268 29.5856 83.9119 28.4048 84.2821 27.8996C84.6523 27.3945 85.5153 27.1409 86.8713 27.1409C88.2272 27.1409 89.0642 27.3924 89.4343 27.8934C89.8025 28.3944 89.9896 29.544 89.9896 31.3422C89.9896 33.4751 89.8126 34.8202 89.4565 35.3794V35.3773ZM64.1199 41.7877C63.975 41.6796 63.631 41.6255 63.0878 41.6255C62.4461 41.6255 62.0316 41.6775 61.8445 41.7835C61.6574 41.8874 61.5649 42.1203 61.5649 42.4841C61.5649 42.8915 61.6373 43.1389 61.7842 43.2262C61.931 43.3156 62.3656 43.3759 63.0898 43.4071C63.9368 43.4424 64.478 43.5401 64.7094 43.7064C64.9387 43.8728 65.0554 44.2407 65.0554 44.8145C65.0554 45.4361 64.9206 45.8393 64.657 46.0202C64.3915 46.199 63.806 46.2946 62.8987 46.2946C62.1121 46.2946 61.589 46.2031 61.3295 46.0202C61.068 45.8373 60.9392 45.4693 60.9392 44.9122L60.9352 44.6877H61.5468V44.8124C61.5468 45.2614 61.6212 45.54 61.7701 45.6481C61.919 45.7562 62.3012 45.8102 62.9188 45.8102C63.625 45.8102 64.0595 45.7562 64.2205 45.6481C64.3814 45.54 64.4639 45.249 64.4639 44.7729C64.4639 44.4652 64.4076 44.2594 64.2969 44.1576C64.1863 44.0557 63.9549 43.9954 63.6029 43.9767L62.9631 43.9476L62.3555 43.9185C61.4341 43.8582 60.9734 43.4154 60.9734 42.5859C60.9734 42.0101 61.1082 41.6276 61.3758 41.4343C61.6454 41.243 62.1805 41.1453 62.9852 41.1453C63.8 41.1453 64.3311 41.2347 64.5786 41.4155C64.826 41.5964 64.9508 41.9789 64.9508 42.5672H64.3392C64.3392 42.1577 64.2647 41.8999 64.1179 41.7897L64.1199 41.7877ZM69.0088 46.234V44.1302L71.0709 41.1886H70.3406L69.1738 42.8933L68.9444 43.2217L68.8358 43.3839L68.7271 43.5502H68.711L68.6024 43.3839C68.5561 43.3153 68.5199 43.2612 68.4898 43.2217L68.2664 42.8933L67.0956 41.1907H66.3794L68.3892 44.1302V46.234H69.0088ZM73.0262 44.8084C73.0264 45.2563 73.1009 45.5341 73.2495 45.6421C73.3984 45.7502 73.7806 45.8042 74.3983 45.8042C75.1044 45.8042 75.539 45.7502 75.6999 45.6421C75.8609 45.534 75.9433 45.2429 75.9433 44.7669C75.9433 44.4592 75.889 44.2534 75.7784 44.1515C75.6677 44.0497 75.4364 43.9894 75.0843 43.9707L74.4445 43.9416L73.837 43.9125C72.9156 43.8522 72.4549 43.4094 72.4569 42.5799C72.4569 42.0041 72.5917 41.6215 72.8592 41.4282C73.1268 41.237 73.664 41.1393 74.4687 41.1393C75.2835 41.1393 75.8146 41.2286 76.062 41.4095C76.3095 41.5904 76.4322 41.9729 76.4342 42.5612H75.8226C75.8226 42.1558 75.7482 41.9001 75.6013 41.7899C75.4545 41.6798 75.1105 41.6257 74.5693 41.6278C73.9255 41.6278 73.5111 41.6798 73.326 41.7858C73.1389 41.8897 73.0463 42.1226 73.0463 42.4864C73.0463 42.8938 73.1208 43.1412 73.2656 43.2285C73.4105 43.3179 73.847 43.3782 74.5713 43.4094C75.4203 43.4447 75.9594 43.5445 76.1908 43.7087C76.4201 43.873 76.5368 44.2409 76.5368 44.8168C76.5368 45.4383 76.404 45.8416 76.1385 46.0225C75.8729 46.2013 75.2875 46.2969 74.3802 46.2969C73.5936 46.2969 73.0725 46.2054 72.813 46.0225C72.5514 45.8396 72.4227 45.4716 72.4227 44.9145V44.6899H73.0343L73.0262 44.8084ZM91.8728 45.2478L91.7581 44.9858L91.5247 44.4578L90.0722 41.194H88.9999V46.2373H89.6196V41.9257L89.6155 41.7865L89.6115 41.6492H89.6276C89.6457 41.6971 89.6618 41.7366 89.6759 41.7636L89.7242 41.8821L89.8308 42.1149L91.6917 46.2373H92.3053L94.1622 42.0671L94.2668 41.8301C94.2712 41.8212 94.2778 41.8062 94.2868 41.785C94.2945 41.7667 94.3039 41.7437 94.3151 41.7158L94.3634 41.5973H94.3815L94.3775 41.749L94.3735 41.9008V46.2373H94.9931V41.194H93.9067L92.4622 44.4619L92.2269 44.9858C92.2067 45.0357 92.1705 45.123 92.1142 45.2478L92.0015 45.5097H91.9854L91.8728 45.2478ZM100.304 42.5589C100.304 42.1535 100.232 41.8978 100.085 41.7877C99.9381 41.6775 99.5941 41.6234 99.0529 41.6255C98.4091 41.6255 97.9947 41.6775 97.8096 41.7835C97.6225 41.8874 97.5299 42.1203 97.5299 42.4841C97.5299 42.8915 97.6024 43.1389 97.7492 43.2262C97.8961 43.3156 98.3306 43.3759 99.0549 43.4071C99.9039 43.4424 100.443 43.5422 100.674 43.7064C100.906 43.8707 101.02 44.2386 101.02 44.8145C101.02 45.4361 100.888 45.8373 100.622 46.0202C100.357 46.2011 99.7711 46.2925 98.8658 46.2946C98.0792 46.2946 97.5561 46.2031 97.2966 46.0202C97.035 45.8373 96.9083 45.4693 96.9083 44.9122L96.9043 44.6877H97.5159V44.8124C97.5159 45.2614 97.5903 45.54 97.7392 45.6481C97.888 45.7562 98.2703 45.8102 98.8879 45.8102C99.5941 45.8102 100.029 45.7562 100.194 45.6481C100.355 45.54 100.437 45.2469 100.437 44.7729C100.437 44.4652 100.381 44.2594 100.27 44.1576C100.159 44.0557 99.928 43.9954 99.576 43.9767L98.9362 43.9476L98.3286 43.9185C97.4072 43.8582 96.9465 43.4154 96.9465 42.5859C96.9465 42.0101 97.0813 41.6276 97.3489 41.4343C97.6165 41.243 98.1536 41.1453 98.9583 41.1453C99.7731 41.1453 100.304 41.2347 100.552 41.4155C100.799 41.5943 100.924 41.9768 100.924 42.5672L100.306 42.561L100.304 42.5589ZM82.0895 41.7199H80.3292V46.2373H79.7095V41.7199H77.9291V41.194H82.0895V41.7199ZM84.1736 41.6763V43.3892H86.9398V43.8736H84.1736V45.7529H87.0625V46.2373H83.5539V41.194H87.0625V41.6763H84.1736ZM13.9997 36.9247C14.2009 37.1346 14.5288 37.1325 14.73 36.9247H14.732L18.7033 32.8168C18.9065 32.6089 18.9045 32.2701 18.7033 32.0622L14.73 27.9523C14.5288 27.7444 14.2009 27.7444 13.9997 27.9523L10.0224 32.0622C9.82121 32.2701 9.82121 32.6089 10.0224 32.8168L13.9997 36.9247ZM4.72106 36.275C4.72106 30.8283 8.46302 26.4108 13.0781 26.4108C15.3575 26.4108 17.4216 27.4939 18.9264 29.238C17.5866 24.8267 14.3697 23.4193 10.6096 23.4193C5.64649 23.4193 1.35129 28.4481 1.35129 34.537C1.35129 40.626 4.64663 45.8647 10.9315 46.2743C11.5491 46.3158 12.1688 46.2639 12.7723 46.1204C8.30007 45.9292 4.72308 41.601 4.72308 36.275H4.72106ZM20.2909 30.0416C19.8262 25.2977 15.191 21.8967 9.95022 22.4476C4.82213 22.986 1.0178 27.1021 1.28336 31.7172C1.08419 31.1122 0.971533 30.4803 0.949403 29.8421C0.709999 23.3394 5.42567 19.4228 11.284 18.8075C17.1444 18.1942 22.4214 22.1025 22.9223 27.204C23.3026 31.0686 22.2725 34.5174 18.1604 36.3426C19.6894 34.6151 20.5202 32.3845 20.2909 30.0416ZM24.1191 28.7241C24.0246 34.1707 20.2062 38.5155 15.5911 38.4302C13.3137 38.3866 11.2677 37.2682 9.79307 35.4949C11.0545 39.9312 14.2472 41.3989 18.0073 41.4695C22.9684 41.561 27.3521 36.6133 27.4567 30.5285C27.5613 24.4437 24.3626 19.1405 18.0857 18.6125C17.4701 18.5584 16.8485 18.5979 16.2449 18.7331C20.7111 19.0075 24.2137 23.4022 24.1212 28.7261L24.1191 28.7241ZM8.56588 33.8923C8.52967 38.6612 12.7746 42.5611 18.0455 42.6027L18.0475 42.6048C23.1998 42.6464 27.4145 38.9834 27.6358 34.3642C27.7706 34.9879 27.8168 35.6282 27.7706 36.2664C27.324 42.7566 22.224 46.1201 16.3355 46.0723C10.4469 46.0224 5.61255 41.5446 5.65077 36.4181C5.68095 32.5327 7.06708 29.219 11.3482 27.8699C9.64421 29.4124 8.58398 31.537 8.56588 33.8923Z" fill="#121212" fill-opacity="0.5"/>
</g>
<defs>
<clipPath id="clip0_6410_2152">
<rect width="100.59" height="53.5992" fill="white" transform="translate(0.463379 0.400879)"/>
</clipPath>
</defs>
</svg>
